<?xml version="1.0" encoding="utf-8"?>
<!-- Generator: Adobe Illustrator 24.2.3, SVG Export Plug-In . SVG Version: 6.00 Build 0)  -->
<svg version="1.1" id="Layer_1" xmlns="http://www.w3.org/2000/svg" xmlns:xlink="http://www.w3.org/1999/xlink" x="0px" y="0px"
	 viewBox="0 0 40 40" style="enable-background:new 0 0 40 40;" xml:space="preserve">
<style type="text/css">
	.st0{fill:none;stroke:#F3F3F3;stroke-linecap:round;stroke-linejoin:round;}
</style>
<path id="back-flap" class="st0" d="M29.5,16v-1c0-0.6-0.4-1-1-1h-11c-0.6,0-1-0.4-1-1l0,0c0-0.6-0.4-1-1-1h-6c-0.6,0-1,0.4-1,1v14
	c0,0.6,0.4,1,1,1"/>
<path id="open-flap" class="st0" d="M28.7,28h-19c-0.6,0-1-0.4-1-1c0-0.1,0-0.1,0-0.2l1.8-10c0.1-0.5,0.5-0.8,1-0.8h19
	c0.6,0,1,0.4,1,1c0,0.1,0,0.1,0,0.2l-1.8,10C29.6,27.7,29.2,28,28.7,28z"/>
</svg>
